<?xml version="1.0" encoding="UTF-8"?>
<svg width="111px" height="111px" viewBox="0 0 111 111" version="1.1" xmlns="http://www.w3.org/2000/svg" xmlns:xlink="http://www.w3.org/1999/xlink">
    <title>Group</title>
    <g id="Page-1" stroke="none" stroke-width="1" fill="none" fill-rule="evenodd" opacity="0.157459077">
        <g id="3" transform="translate(-554, -564)">
            <g id="Group" transform="translate(554, 564)">
                <circle id="Oval" stroke="#282338" stroke-width="5" fill="#564E4E" cx="55.5" cy="55.5" r="53"></circle>
                <path d="M61,21.5 C61.9664983,21.5 62.8414983,21.8917508 63.4748737,22.5251263 C64.1082492,23.1585017 64.5,24.0335017 64.5,25 L64.5,46.9989767 L86.5,47 C87.4664983,47 88.3414983,47.3917508 88.9748737,48.0251263 C89.6082492,48.6585017 90,49.5335017 90,50.5 L90,60.5 C90,61.4664983 89.6082492,62.3414983 88.9748737,62.9748737 C88.3414983,63.6082492 87.4664983,64 86.5,64 L64.5,64 L64.5,86 C64.5,86.9664983 64.1082492,87.8414983 63.4748737,88.4748737 C62.8414983,89.1082492 61.9664983,89.5 61,89.5 L51,89.5 C50.0335017,89.5 49.1585017,89.1082492 48.5251263,88.4748737 C47.8917508,87.8414983 47.5,86.9664983 47.5,86 L47.5,64 L25.5,64 C24.5335017,64 23.6585017,63.6082492 23.0251263,62.9748737 C22.3917508,62.3414983 22,61.4664983 22,60.5 L22,50.5 C22,49.5335017 22.3917508,48.6585017 23.0251263,48.0251263 C23.6585017,47.3917508 24.5335017,47 25.5,47 L47.5,47 L47.5,25 C47.5,24.0335017 47.8917508,23.1585017 48.5251263,22.5251263 C49.1585017,21.8917508 50.0335017,21.5 51,21.5 Z" id="Combined-Shape" stroke="#E2E2E2" fill="#FFFFFF"></path>
            </g>
        </g>
    </g>
</svg>