<?xml version="1.0" encoding="UTF-8"?>
<svg width="26.1818182px" height="26.1818182px" viewBox="0 0 26.1818182 26.1818182" version="1.1" xmlns="http://www.w3.org/2000/svg" xmlns:xlink="http://www.w3.org/1999/xlink">
    <title>memory:sword</title>
    <g id="Page-1" stroke="none" stroke-width="1" fill="none" fill-rule="evenodd">
        <g id="3" transform="translate(-728.9091, -606.9091)">
            <g id="memory:sword" transform="translate(726, 604)">
                <rect id="ViewBox" x="0" y="0" width="32" height="32"></rect>
                <path d="M11.6363636,4.36363636 L11.6363636,5.81818182 L13.0909091,5.81818182 L13.0909091,7.27272727 L14.5454545,7.27272727 L14.5454545,8.72727273 L16,8.72727273 L16,10.1818182 L17.4545455,10.1818182 L17.4545455,11.6363636 L18.9090909,11.6363636 L18.9090909,13.0909091 L20.3636364,13.0909091 L20.3636364,14.5454545 L21.8181818,14.5454545 L21.8181818,16 L23.2727273,16 L23.2727273,17.4545455 L24.7272727,17.4545455 L24.7272727,16 L27.6363636,16 L27.6363636,18.9090909 L26.1818182,18.9090909 L26.1818182,20.3636364 L24.7272727,20.3636364 L24.7272727,21.8181818 L26.1818182,21.8181818 L26.1818182,23.2727273 L27.6363636,23.2727273 L27.6363636,24.7272727 L29.0909091,24.7272727 L29.0909091,27.6363636 L27.6363636,27.6363636 L27.6363636,29.0909091 L24.7272727,29.0909091 L24.7272727,27.6363636 L23.2727273,27.6363636 L23.2727273,26.1818182 L21.8181818,26.1818182 L21.8181818,24.7272727 L20.3636364,24.7272727 L20.3636364,26.1818182 L18.9090909,26.1818182 L18.9090909,27.6363636 L16,27.6363636 L16,24.7272727 L17.4545455,24.7272727 L17.4545455,23.2727273 L16,23.2727273 L16,21.8181818 L14.5454545,21.8181818 L14.5454545,20.3636364 L13.0909091,20.3636364 L13.0909091,18.9090909 L11.6363636,18.9090909 L11.6363636,17.4545455 L10.1818182,17.4545455 L10.1818182,16 L8.72727273,16 L8.72727273,14.5454545 L7.27272727,14.5454545 L7.27272727,13.0909091 L5.81818182,13.0909091 L5.81818182,11.6363636 L4.36363636,11.6363636 L4.36363636,10.1818182 L2.90909091,10.1818182 L2.90909091,2.90909091 L10.1818182,2.90909091 L10.1818182,4.36363636 L11.6363636,4.36363636 M10.1818182,7.27272727 L8.72727273,7.27272727 L8.72727273,5.81818182 L5.81818182,5.81818182 L5.81818182,7.27272727 L7.27272727,7.27272727 L7.27272727,8.72727273 L8.72727273,8.72727273 L8.72727273,10.1818182 L10.1818182,10.1818182 L10.1818182,11.6363636 L11.6363636,11.6363636 L11.6363636,13.0909091 L13.0909091,13.0909091 L13.0909091,14.5454545 L14.5454545,14.5454545 L14.5454545,16 L16,16 L16,17.4545455 L17.4545455,17.4545455 L17.4545455,18.9090909 L20.3636364,18.9090909 L20.3636364,17.4545455 L18.9090909,17.4545455 L18.9090909,16 L17.4545455,16 L17.4545455,14.5454545 L16,14.5454545 L16,13.0909091 L14.5454545,13.0909091 L14.5454545,11.6363636 L13.0909091,11.6363636 L13.0909091,10.1818182 L11.6363636,10.1818182 L11.6363636,8.72727273 L10.1818182,8.72727273 L10.1818182,7.27272727 Z" id="Shape" fill="#FFFFFF" fill-rule="nonzero"></path>
            </g>
        </g>
    </g>
</svg>