<?xml version="1.0" encoding="UTF-8"?>
<svg width="26.1818182px" height="17.4545455px" viewBox="0 0 26.1818182 17.4545455" version="1.1" xmlns="http://www.w3.org/2000/svg" xmlns:xlink="http://www.w3.org/1999/xlink">
    <title>memory:battery-100</title>
    <g id="Page-1" stroke="none" stroke-width="1" fill="none" fill-rule="evenodd">
        <g id="3" transform="translate(-780.9091, -271.2727)">
            <g id="memory:battery-100" transform="translate(778, 264)">
                <rect id="ViewBox" x="0" y="0" width="32" height="32"></rect>
                <path d="M7.27272727,11.6363636 L10.1818182,11.6363636 L10.1818182,20.3636364 L7.27272727,20.3636364 L7.27272727,11.6363636 M11.6363636,11.6363636 L14.5454545,11.6363636 L14.5454545,20.3636364 L11.6363636,20.3636364 L11.6363636,11.6363636 M26.1818182,7.27272727 L26.1818182,8.72727273 L27.6363636,8.72727273 L27.6363636,13.0909091 L29.0909091,13.0909091 L29.0909091,18.9090909 L27.6363636,18.9090909 L27.6363636,23.2727273 L26.1818182,23.2727273 L26.1818182,24.7272727 L4.36363636,24.7272727 L4.36363636,23.2727273 L2.90909091,23.2727273 L2.90909091,8.72727273 L4.36363636,8.72727273 L4.36363636,7.27272727 L26.1818182,7.27272727 M24.7272727,10.1818182 L5.81818182,10.1818182 L5.81818182,21.8181818 L24.7272727,21.8181818 L24.7272727,10.1818182 M16,11.6363636 L18.9090909,11.6363636 L18.9090909,20.3636364 L16,20.3636364 L16,11.6363636 M20.3636364,11.6363636 L23.2727273,11.6363636 L23.2727273,20.3636364 L20.3636364,20.3636364 L20.3636364,11.6363636 Z" id="Shape" fill="#7F7F7F" fill-rule="nonzero"></path>
            </g>
        </g>
    </g>
</svg>