<?xml version="1.0" encoding="UTF-8"?>
<svg width="13.3333333px" height="13.3333333px" viewBox="0 0 13.3333333 13.3333333" version="1.1" xmlns="http://www.w3.org/2000/svg" xmlns:xlink="http://www.w3.org/1999/xlink">
    <title>mdi:emoticon-dead copy 5</title>
    <g id="Page-1" stroke="none" stroke-width="1" fill="none" fill-rule="evenodd">
        <g id="3" transform="translate(-1045.3333, -698.3333)">
            <g id="mdi:emoticon-dead-copy-5" transform="translate(1044, 697)">
                <rect id="ViewBox" x="0" y="0" width="16" height="16"></rect>
                <path d="M8,1.33333333 C4.31333333,1.33333333 1.33333333,4.31333333 1.33333333,8 C1.33333333,11.6866667 4.31333333,14.6666667 8,14.6666667 C11.6818983,14.6666667 14.6666667,11.6818983 14.6666667,8 C14.6666667,4.31333333 11.6666667,1.33333333 8,1.33333333 M4.50666667,5.88 L5.21333333,5.17333333 L5.92,5.88 L6.62666667,5.17333333 L7.33333333,5.88 L6.62666667,6.58666667 L7.33333333,7.29333333 L6.62666667,8 L5.92,7.29333333 L5.21333333,8 L4.50666667,7.29333333 L5.21333333,6.58666667 L4.50666667,5.88 M4.59333333,11.6666667 C5.12666667,10.3066667 6.44666667,9.33333333 8,9.33333333 C9.55333333,9.33333333 10.8733333,10.3066667 11.4066667,11.6666667 L4.59333333,11.6666667 M11.4933333,7.29333333 L10.7866667,8 L10.08,7.29333333 L9.37333333,8 L8.66666667,7.29333333 L9.37333333,6.58666667 L8.66666667,5.88 L9.37333333,5.17333333 L10.08,5.88 L10.7866667,5.17333333 L11.4933333,5.88 L10.7866667,6.58666667 L11.4933333,7.29333333 Z" id="Shape" fill="#000000" fill-rule="nonzero"></path>
            </g>
        </g>
    </g>
</svg>