<?xml version="1.0" encoding="UTF-8"?>
<svg width="270.397862px" height="63.4068154px" viewBox="0 0 270.397862 63.4068154" version="1.1" xmlns="http://www.w3.org/2000/svg" xmlns:xlink="http://www.w3.org/1999/xlink">
    <title>Group 4</title>
    <g id="Page-1" stroke="none" stroke-width="1" fill="none" fill-rule="evenodd">
        <g id="3" transform="translate(-538, -738.5932)">
            <g id="Group-4" transform="translate(527, 716)">
                <g id="Group-2">
                    <rect id="Rectangle" x="0" y="0" width="321" height="101"></rect>
                    <path d="M221.593021,20.403457 L224.692456,20.3993669 C226.349309,20.3971804 227.694226,21.7385526 227.696412,23.3954054 C227.696416,23.3980467 227.696416,23.4006879 227.696412,23.4033292 L227.615783,84.4094993 C227.613597,86.0632585 226.273504,87.4033494 224.619745,87.4055317 L221.52031,87.4096219 C219.863457,87.4118083 218.51854,86.0704362 218.516354,84.4135834 C218.51635,84.4109421 218.51635,84.4083008 218.516354,84.4056595 L218.596983,23.3994895 C218.599169,21.7457303 219.939262,20.4056394 221.593021,20.403457 Z" id="Rectangle" fill="#D8D8D8" transform="translate(223.1064, 53.9045) rotate(30) translate(-223.1064, -53.9045)"></path>
                    <path d="M234.114298,20.403457 L237.213732,20.3993669 C238.870585,20.3971804 240.215502,21.7385526 240.217689,23.3954054 C240.217692,23.3980467 240.217692,23.4006879 240.217689,23.4033292 L240.13706,84.4094993 C240.134874,86.0632585 238.79478,87.4033494 237.141021,87.4055317 L234.041587,87.4096219 C232.384734,87.4118083 231.039817,86.0704362 231.03763,84.4135834 C231.037627,84.4109421 231.037627,84.4083008 231.03763,84.4056595 L231.11826,23.3994895 C231.120445,21.7457303 232.460539,20.4056394 234.114298,20.403457 Z" id="Rectangle-Copy-54" fill="#D8D8D8" transform="translate(235.6277, 53.9045) rotate(30) translate(-235.6277, -53.9045)"></path>
                    <path d="M246.635575,20.403457 L249.735009,20.3993669 C251.391862,20.3971804 252.736779,21.7385526 252.738965,23.3954054 C252.738969,23.3980467 252.738969,23.4006879 252.738965,23.4033292 L252.658336,84.4094993 C252.656151,86.0632585 251.316057,87.4033494 249.662298,87.4055317 L246.562863,87.4096219 C244.906011,87.4118083 243.561093,86.0704362 243.558907,84.4135834 C243.558904,84.4109421 243.558904,84.4083008 243.558907,84.4056595 L243.639536,23.3994895 C243.641722,21.7457303 244.981815,20.4056394 246.635575,20.403457 Z" id="Rectangle-Copy-55" fill="#D8D8D8" transform="translate(248.1489, 53.9045) rotate(30) translate(-248.1489, -53.9045)"></path>
                    <path d="M259.156851,20.403457 L262.256286,20.3993669 C263.913138,20.3971804 265.258055,21.7385526 265.260242,23.3954054 C265.260245,23.3980467 265.260245,23.4006879 265.260242,23.4033292 L265.179613,84.4094993 C265.177427,86.0632585 263.837334,87.4033494 262.183574,87.4055317 L259.08414,87.4096219 C257.427287,87.4118083 256.08237,86.0704362 256.080184,84.4135834 C256.08018,84.4109421 256.08018,84.4083008 256.080184,84.4056595 L256.160813,23.3994895 C256.162998,21.7457303 257.503092,20.4056394 259.156851,20.403457 Z" id="Rectangle-Copy-56" fill="#D8D8D8" transform="translate(260.6702, 53.9045) rotate(30) translate(-260.6702, -53.9045)"></path>
                </g>
                <g id="ETHCC-Edition" transform="translate(11, 78)" fill="#000000" fill-opacity="0.85" fill-rule="nonzero">
                    <path d="M1.71378952,0 L0.0559350727,6.0621118 C-0.0124300593,6.30503804 -0.0181270667,6.54244306 0.0388437897,6.77432712 C0.0958146461,7.00621118 0.192665337,7.21325052 0.329395601,7.39544513 C0.466125865,7.57763975 0.639887329,7.72394747 0.850679732,7.83436853 C1.06147214,7.94478959 1.28650745,8 1.52578541,8 L10.2936136,8 C10.3164019,7.88957894 10.3448874,7.72118711 10.37907,7.49482402 C10.4132526,7.26846092 10.4474351,7.03933747 10.4816177,6.80745342 C10.5158003,6.57556936 10.5414372,6.37129063 10.5585285,6.19461698 C10.5756198,6.01794333 10.5727711,5.92960663 10.5499828,5.92960663 L2.41453213,5.92960663 L2.34616699,5.69772257 L2.51707982,5.05175983 L10.139792,5.05175983 C10.1511863,5.05175983 10.1967629,4.96342313 10.2765223,4.78674948 C10.3562817,4.61007583 10.4474351,4.40303649 10.5499828,4.16563147 C10.6525305,3.92822645 10.7493812,3.69634239 10.8405346,3.4699793 C10.9316881,3.2436162 10.9886592,3.08074534 11.0114475,2.98136646 L3.09818345,2.98136646 L3.33746141,2.07039337 L11.6096424,2.07039337 C11.6210367,2.07039337 11.6694619,1.98205667 11.7549183,1.80538302 C11.8403747,1.62870937 11.9315281,1.42443064 12.0283788,1.19254658 C12.1252295,0.960662526 12.2192316,0.728778468 12.310385,0.49689441 C12.4015384,0.265010352 12.4585095,0.099378882 12.4812978,0 L1.71378952,0 Z" id="Path"></path>
                    <polygon id="Path" points="17.5574089 2.07039337 13.3187707 2.07039337 13.882783 0 24.6161087 0 24.0520964 2.07039337 19.7450931 2.07039337 18.1214212 8 15.933737 8"></polygon>
                    <polygon id="Path" points="34.4948703 0 33.69158 2.98136646 27.4019879 2.98136646 28.2052782 0 26.0175939 0 23.8299097 8 26.0175939 8 26.8208842 5.05175983 33.1104764 5.05175983 32.3071861 8 34.4948703 8 36.6825545 0"></polygon>
                    <path d="M38.0840397,0 L48.851548,0 C48.8287597,0.099378882 48.7717886,0.265010352 48.6806352,0.49689441 C48.5894818,0.728778468 48.4954797,0.960662526 48.398629,1.19254658 C48.3017783,1.42443064 48.2106249,1.62870937 48.1251685,1.80538302 C48.0397121,1.98205667 47.9912869,2.07039337 47.9798926,2.07039337 L39.7077116,2.07039337 L38.7164172,5.69772257 L38.7847823,5.92960663 L46.920233,5.92960663 C46.9430213,5.92960663 46.94587,6.01794333 46.9287787,6.19461698 C46.9116874,6.37129063 46.8860505,6.57556936 46.8518679,6.80745342 C46.8176853,7.03933747 46.7835028,7.26846092 46.7493202,7.49482402 C46.7151376,7.72118711 46.6866521,7.88957894 46.6638638,8 L37.8960356,8 C37.6567577,8 37.4317223,7.94478959 37.2209299,7.83436853 C37.0101375,7.72394747 36.8363761,7.57763975 36.6996458,7.39544513 C36.5629155,7.21325052 36.4660649,7.00621118 36.409094,6.77432712 C36.3521231,6.54244306 36.3578202,6.30503804 36.4261853,6.0621118 L38.0840397,0 Z" id="Path"></path>
                    <path d="M50.2530332,0 L61.0205415,0 C60.9977532,0.099378882 60.9407821,0.265010352 60.8496287,0.49689441 C60.7584753,0.728778468 60.6644732,0.960662526 60.5676225,1.19254658 C60.4707718,1.42443064 60.3796184,1.62870937 60.294162,1.80538302 C60.2087056,1.98205667 60.1602804,2.07039337 60.1488861,2.07039337 L51.8767051,2.07039337 L50.8854107,5.69772257 L50.9537758,5.92960663 L59.0892265,5.92960663 C59.1120148,5.92960663 59.1148635,6.01794333 59.0977722,6.19461698 C59.0806809,6.37129063 59.055044,6.57556936 59.0208614,6.80745342 C58.9866788,7.03933747 58.9524963,7.26846092 58.9183137,7.49482402 C58.8841311,7.72118711 58.8556456,7.88957894 58.8328573,8 L50.0650291,8 C49.8257511,8 49.6007158,7.94478959 49.3899234,7.83436853 C49.179131,7.72394747 49.0053696,7.57763975 48.8686393,7.39544513 C48.731909,7.21325052 48.6350583,7.00621118 48.5780875,6.77432712 C48.5211166,6.54244306 48.5268136,6.30503804 48.5951788,6.0621118 L50.2530332,0 Z" id="Path"></path>
                    <path d="M69.5149092,0 L67.8570547,6.0621118 C67.7886896,6.30503804 67.7829926,6.54244306 67.8399634,6.77432712 C67.8969343,7.00621118 67.993785,7.21325052 68.1305152,7.39544513 C68.2672455,7.57763975 68.441007,7.72394747 68.6517994,7.83436853 C68.8625918,7.94478959 69.0876271,8 69.326905,8 L78.0947332,8 C78.1175215,7.88957894 78.1460071,7.72118711 78.1801896,7.49482402 C78.2143722,7.26846092 78.2485548,7.03933747 78.2827373,6.80745342 C78.3169199,6.57556936 78.3425568,6.37129063 78.3596481,6.19461698 C78.3767394,6.01794333 78.3738908,5.92960663 78.3511025,5.92960663 L70.2156518,5.92960663 L70.1472866,5.69772257 L70.3181995,5.05175983 L77.9409117,5.05175983 C77.9523059,5.05175983 77.9978825,4.96342313 78.0776419,4.78674948 C78.1574013,4.61007583 78.2485548,4.40303649 78.3511025,4.16563147 C78.4536502,3.92822645 78.5505009,3.69634239 78.6416543,3.4699793 C78.7328077,3.2436162 78.7897788,3.08074534 78.8125671,2.98136646 L70.8993031,2.98136646 L71.138581,2.07039337 L79.410762,2.07039337 C79.4221563,2.07039337 79.4705815,1.98205667 79.5560379,1.80538302 C79.6414943,1.62870937 79.7326478,1.42443064 79.8294984,1.19254658 C79.9263491,0.960662526 80.0203512,0.728778468 80.1115046,0.49689441 C80.202658,0.265010352 80.2596292,0.099378882 80.2824174,0 L69.5149092,0 Z" id="Path"></path>
                    <path d="M81.6839026,0 L90.6910088,0 C90.8619216,0 91.0356831,0.049689441 91.2122929,0.149068323 C91.3889028,0.248447205 91.5427243,0.375431416 91.6737576,0.530020704 C91.8047908,0.684609992 91.9044899,0.85300207 91.972855,1.03519669 C92.0412201,1.2173913 92.0526144,1.39682531 92.0070376,1.57349896 L90.6910088,6.32712215 C90.6340379,6.54796403 90.5115503,6.76052458 90.3235462,6.96480331 C90.1355421,7.16908204 89.9219011,7.3485163 89.6826231,7.50310559 C89.4433451,7.65769488 89.1926729,7.77915812 88.9306066,7.86749482 C88.6685404,7.95583152 88.4349594,8 88.229864,8 L79.4962184,8 L81.6839026,0 Z M82.247915,5.92960663 L88.6058723,5.92960663 L89.6655318,2.12008282 L83.3075745,2.12008282 L82.247915,5.92960663 Z" id="Shape"></path>
                    <polygon id="Path" points="93.8187136 0 96.0063978 0 93.8187136 8 91.6310293 8"></polygon>
                    <polygon id="Path" points="101.082509 2.07039337 96.8438707 2.07039337 97.407883 0 108.141209 0 107.577196 2.07039337 103.270193 2.07039337 101.646521 8 99.458837 8"></polygon>
                    <polygon id="Path" points="109.542694 0 111.730378 0 109.542694 8 107.35501 8"></polygon>
                    <path d="M113.131863,0 L122.138969,0 C122.309882,0 122.483644,0.049689441 122.660254,0.149068323 C122.836863,0.248447205 122.990685,0.375431416 123.121718,0.530020704 C123.252752,0.684609992 123.352451,0.85300207 123.420816,1.03519669 C123.489181,1.2173913 123.500575,1.39682531 123.454998,1.57349896 L122.138969,6.32712215 C122.081999,6.54796403 121.959511,6.76052458 121.771507,6.96480331 C121.583503,7.16908204 121.369862,7.3485163 121.130584,7.50310559 C120.891306,7.65769488 120.640634,7.77915812 120.378567,7.86749482 C120.116501,7.95583152 119.88292,8 119.677825,8 L112.943859,8 C112.715976,8 112.499486,7.95031056 112.29439,7.85093168 C112.089295,7.7515528 111.912685,7.62180823 111.764561,7.46169772 C111.616436,7.30158722 111.508191,7.11663224 111.439826,6.9068323 C111.371461,6.69703235 111.365764,6.47619048 111.422735,6.24430642 L113.131863,0 Z M113.74715,5.74741201 L113.88388,5.92960663 L120.053833,5.92960663 L121.113493,2.12008282 L114.755535,2.12008282 L113.74715,5.74741201 Z" id="Shape"></path>
                    <polygon id="Path" points="125.266674 0 127.420176 0 132.462104 5.18426501 133.880681 0 136 0 133.812316 8 131.624632 8 126.685251 2.81573499 125.266674 8 123.07899 8"></polygon>
                </g>
            </g>
        </g>
    </g>
</svg>