<?xml version="1.0" encoding="UTF-8"?>
<svg width="11px" height="11px" viewBox="0 0 11 11" version="1.1" xmlns="http://www.w3.org/2000/svg" xmlns:xlink="http://www.w3.org/1999/xlink">
    <title>memory:plus-box-fill copy 4</title>
    <g id="Page-1" stroke="none" stroke-width="1" fill="none" fill-rule="evenodd">
        <g id="3" transform="translate(-1084, -876)">
            <g id="memory:plus-box-fill-copy-4" transform="translate(1083, 875)">
                <rect id="ViewBox" x="0" y="0" width="13" height="13"></rect>
                <path d="M10.7777778,12 L2.22222222,12 L2.22222222,11.3888889 L1.61111111,11.3888889 L1.61111111,10.7777778 L1,10.7777778 L1,2.22222222 L1.61111111,2.22222222 L1.61111111,1.61111111 L2.22222222,1.61111111 L2.22222222,1 L10.7777778,1 L10.7777778,1.61111111 L11.3888889,1.61111111 L11.3888889,2.22222222 L12,2.22222222 L12,10.7777778 L11.3888889,10.7777778 L11.3888889,11.3888889 L10.7777778,11.3888889 L10.7777778,12 Z M7.11111111,9.55555556 L7.11111111,7.11111111 L9.55555556,7.11111111 L9.55555556,5.88888889 L7.11111111,5.88888889 L7.11111111,3.44444444 L5.88888889,3.44444444 L5.88888889,5.88888889 L3.44444444,5.88888889 L3.44444444,7.11111111 L5.88888889,7.11111111 L5.88888889,9.55555556 L7.11111111,9.55555556 Z" id="Shape" fill="#000000" fill-rule="nonzero"></path>
            </g>
        </g>
    </g>
</svg>