<?xml version="1.0" encoding="UTF-8"?>
<svg width="23.2727273px" height="29.0909091px" viewBox="0 0 23.2727273 29.0909091" version="1.1" xmlns="http://www.w3.org/2000/svg" xmlns:xlink="http://www.w3.org/1999/xlink">
    <title>memory:shield</title>
    <g id="Page-1" stroke="none" stroke-width="1" fill="none" fill-rule="evenodd">
        <g id="3" transform="translate(-784.3636, -573.4545)">
            <g id="memory:shield" transform="translate(780, 572)">
                <rect id="ViewBox" x="0" y="0" width="32" height="32"></rect>
                <path d="M4.36363636,5.81818182 L7.27272727,5.81818182 L7.27272727,4.36363636 L10.1818182,4.36363636 L10.1818182,2.90909091 L13.0909091,2.90909091 L13.0909091,1.45454545 L18.9090909,1.45454545 L18.9090909,2.90909091 L21.8181818,2.90909091 L21.8181818,4.36363636 L24.7272727,4.36363636 L24.7272727,5.81818182 L27.6363636,5.81818182 L27.6363636,20.3636364 L26.1818182,20.3636364 L26.1818182,23.2727273 L24.7272727,23.2727273 L24.7272727,26.1818182 L23.2727273,26.1818182 L23.2727273,27.6363636 L21.8181818,27.6363636 L21.8181818,29.0909091 L18.9090909,29.0909091 L18.9090909,30.5454545 L13.0909091,30.5454545 L13.0909091,29.0909091 L10.1818182,29.0909091 L10.1818182,27.6363636 L8.72727273,27.6363636 L8.72727273,26.1818182 L7.27272727,26.1818182 L7.27272727,23.2727273 L5.81818182,23.2727273 L5.81818182,20.3636364 L4.36363636,20.3636364 L4.36363636,5.81818182 M15.3839746,16.7990381 L15.4922278,16.8615381 L13.9922278,19.4596143 L14.1004809,19.5221143 L12.6004809,22.1201905 L12.7087341,22.1826905 L11.9587341,23.4817286 L12.7165064,23.9192286 L13.4665064,22.6201905 L13.6830127,22.7451905 L14.4330127,21.4461524 L14.6495191,21.5711524 L15.3995191,20.2721143 L15.5077722,20.3346143 L17.0077722,17.7365381 L17.1160254,17.7990381 L18.6160254,15.2009619 L18.5077722,15.1384619 L20.0077722,12.5403857 L19.8995191,12.4778857 L20.6495191,11.1788476 L20.4330127,11.0538476 L21.1830127,9.75480947 L20.9665064,9.62980947 L21.7165064,8.33077137 L20.9587341,7.89327137 L20.2087341,9.19230947 L20.1004809,9.12980947 L18.6004809,11.7278857 L18.4922278,11.6653857 L16.9922278,14.2634619 L16.8839746,14.2009619 L15.3839746,16.7990381 Z" id="Shape" fill="#FFFFFF" fill-rule="nonzero"></path>
            </g>
        </g>
    </g>
</svg>