<?xml version="1.0" encoding="UTF-8"?>
<svg width="26.1818182px" height="26.1818182px" viewBox="0 0 26.1818182 26.1818182" version="1.1" xmlns="http://www.w3.org/2000/svg" xmlns:xlink="http://www.w3.org/1999/xlink">
    <title>memory:plus-box-fill</title>
    <g id="Page-1" stroke="none" stroke-width="1" fill="none" fill-rule="evenodd">
        <g id="3" transform="translate(-782.9091, -643.9091)">
            <g id="memory:plus-box-fill" transform="translate(780, 641)">
                <rect id="ViewBox" x="0" y="0" width="32" height="32"></rect>
                <path d="M26.1818182,29.0909091 L5.81818182,29.0909091 L5.81818182,27.6363636 L4.36363636,27.6363636 L4.36363636,26.1818182 L2.90909091,26.1818182 L2.90909091,5.81818182 L4.36363636,5.81818182 L4.36363636,4.36363636 L5.81818182,4.36363636 L5.81818182,2.90909091 L26.1818182,2.90909091 L26.1818182,4.36363636 L27.6363636,4.36363636 L27.6363636,5.81818182 L29.0909091,5.81818182 L29.0909091,26.1818182 L27.6363636,26.1818182 L27.6363636,27.6363636 L26.1818182,27.6363636 L26.1818182,29.0909091 Z M17.4545455,23.2727273 L17.4545455,17.4545455 L23.2727273,17.4545455 L23.2727273,14.5454545 L17.4545455,14.5454545 L17.4545455,8.72727273 L14.5454545,8.72727273 L14.5454545,14.5454545 L8.72727273,14.5454545 L8.72727273,17.4545455 L14.5454545,17.4545455 L14.5454545,23.2727273 L17.4545455,23.2727273 Z" id="Shape" fill="#FFFFFF" fill-rule="nonzero"></path>
            </g>
        </g>
    </g>
</svg>