<?xml version="1.0" encoding="utf-8"?>
<!-- Generator: Adobe Illustrator 27.7.0, SVG Export Plug-In . SVG Version: 6.00 Build 0)  -->
<svg version="1.1" id="Layer_1" shape-rendering="crispEdges"
	 xmlns="http://www.w3.org/2000/svg" xmlns:xlink="http://www.w3.org/1999/xlink" x="0px" y="0px" viewBox="0 0 14 19"
	 style="enable-background:new 0 0 14 19;" xml:space="preserve">
<style type="text/css">
	.st0{fill:#323232;}
	.st1{fill:#393939;}
	.st2{fill:#B6B6B6;}
	.st3{fill:#202020;}
	.st4{fill:#2E2E2E;}
	.st5{fill:#343434;}
	.st6{fill:#BABABA;}
	.st7{fill:#CACACA;}
	.st8{fill:#2C2C2C;}
	.st9{fill:#616161;}
	.st10{fill:#626262;}
	.st11{fill:#757575;}
	.st12{fill:#242424;}
	.st13{fill:#BEBEBE;}
	.st14{fill:#383838;}
</style>
<g>
	<path d="M6,0.5h5 M4,1.5h2 M11,1.5h1 M1,2.5h3 M12,2.5h1 M0,3.5h1 M13,3.5h1 M0,4.5h1 M13,4.5h1 M1,5.5h1 M3,5.5h1 M11,5.5h2
		 M2,6.5h1 M11,6.5h1 M2,7.5h1 M11,7.5h1 M2,8.5h1 M4,8.5h3 M9,8.5h3 M1,9.5h1 M3,9.5h2 M7,9.5h3 M12,9.5h1 M1,10.5h1 M4,10.5h1
		 M6,10.5h1 M9,10.5h1 M12,10.5h1 M2,11.5h1 M11,11.5h1 M3,12.5h1 M10,12.5h1 M2,13.5h1 M4,13.5h6 M1,14.5h1 M9,14.5h2 M1,15.5h1
		 M3,15.5h1 M9,15.5h1 M11,15.5h1 M1,16.5h3 M9,16.5h3 M3,17.5h1 M5,17.5h1 M7,17.5h1 M9,17.5h1 M3,18.5h2 M7,18.5h2"/>
	<path d="M9,19H7v-2h1v1h1V19z M5,19H3v-2H1v-3h1v2h1v-1h1v3h1V19z M10,18H9v-4H4v-1H3v-1H2v-1H1v-1h1v1h1v1h1v1h6v1h1v1h1v2h-2V18z
		 M10,16h1v-1h-1V16z M6,18H5v-1h1V18z M3,14H2v-1h1V14z M11,13h-1v-1h1V13z M12,12h-1v-1h1V12z M13,11h-1v-1h1V11z M10,11H9v-1h1
		V11z M7,11H6v-1h1V11z M5,11H4v-1h1V11z M13,10h-1V9h-2v1H7V9H5v1H3V9H2V6H1V5H0V3h1v2h1v1h1v3h1V8h3v1h2V8h2V5h2v1h-1v3h1V10z
		 M2,10H1V9h1V10z M4,6H3V5h1V6z M14,5h-1V3h-1V2h-1V1H6V0h5v1h1v1h1v1h1V5z M4,3H1V2h3V3z M6,2H4V1h2V2z"/>
</g>
<g>
	<path d="M6,1.5h2 M4,2.5h3 M1,3.5h4 M1,4.5h2"/>
	<polygon class="st0" points="3,5 1,5 1,3 4,3 4,2 6,2 6,1 8,1 8,2 7,2 7,3 5,3 5,4 3,4 	"/>
</g>
<g>
	<path d="M8,1.5h3 M7,2.5h1 M10,2.5h2 M5,3.5h3 M10,3.5h3 M3,4.5h2 M12,4.5h1 M2,5.5h1"/>
	<path class="st1" d="M3,6H2V5h1V6z M13,5h-1V4h-2V2H8V1h3v1h1v1h1V5z M5,5H3V4h2V5z M8,4H5V3h2V2h1V4z"/>
</g>
<g>
	<path d="M8,2.5h2 M8,3.5h2"/>
	<rect x="8" y="2" class="st2" width="2" height="2"/>
</g>
<g>
	<path d="M5,4.5h7"/>
	<rect x="5" y="4" class="st3" width="7" height="1"/>
</g>
<g>
	<path d="M4,5.5h7"/>
	<rect x="4" y="5" class="st4" width="7" height="1"/>
</g>
<g>
	<path d="M3,6.5h1 M3,7.5h1"/>
	<rect x="3" y="6" class="st5" width="1" height="2"/>
</g>
<g>
	<path d="M4,6.5h7 M4,7.5h1 M3,8.5h1 M2,10.5h2 M3,11.5h3 M4,12.5h3"/>
	<path class="st6" d="M7,13H4v-1H3v-1H2v-1h2v1h2v1h1V13z M4,9H3V8h1V9z M5,8H4V6h7v1H5V8z"/>
</g>
<g>
	<path d="M5,7.5h6 M7,8.5h2 M2,9.5h1 M7,10.5h2 M6,11.5h5 M7,12.5h3 M10,15.5h1"/>
	<path class="st7" d="M11,16h-1v-1h1V16z M10,13H7v-1H6v-1h1v-1h2v1h2v1h-1V13z M3,10H2V9h1V10z M9,9H7V8H5V7h6v1H9V9z"/>
</g>
<g>
	<path d="M5,9.5h1 M10,9.5h1 M5,10.5h1 M10,10.5h2"/>
	<path class="st8" d="M12,11h-2v-1h2V11z M6,11H5v-1h1V11z M11,10h-1V9h1V10z M6,10H5V9h1V10z"/>
</g>
<g>
	<path d="M6,9.5h1 M11,9.5h1"/>
	<path class="st9" d="M12,10h-1V9h1V10z M7,10H6V9h1V10z"/>
</g>
<g>
	<path d="M3,13.5h1 M2,14.5h5 M2,15.5h1 M4,15.5h1"/>
	<polygon class="st10" points="5,16 4,16 4,15 3,15 3,16 2,16 2,14 3,14 3,13 4,13 4,14 7,14 7,15 5,15 	"/>
</g>
<g>
	<path d="M7,14.5h2 M5,15.5h4"/>
	<polygon class="st11" points="9,16 5,16 5,15 7,15 7,14 9,14 	"/>
</g>
<g>
	<path d="M4,16.5h2 M7,16.5h2"/>
	<path class="st12" d="M9,17H7v-1h2V17z M6,17H4v-1h2V17z"/>
</g>
<g>
	<path d="M6,16.5h1"/>
	<rect x="6" y="16" class="st13" width="1" height="1"/>
</g>
<g>
	<path d="M4,17.5h1 M8,17.5h1"/>
	<path class="st14" d="M9,18H8v-1h1V18z M5,18H4v-1h1V18z"/>
</g>
</svg>
