<?xml version="1.0" encoding="utf-8"?>
<!-- Generator: Adobe Illustrator 27.7.0, SVG Export Plug-In . SVG Version: 6.00 Build 0)  -->
<svg version="1.1" id="Layer_1" shape-rendering="crispEdges"
	 xmlns="http://www.w3.org/2000/svg" xmlns:xlink="http://www.w3.org/1999/xlink" x="0px" y="0px" viewBox="0 0 12 18"
	 style="enable-background:new 0 0 12 18;" xml:space="preserve">
<style type="text/css">
	.st0{stroke:#000000;}
	.st1{stroke:#212121;}
	.st2{stroke:#575755;}
	.st3{stroke:#E0BC91;}
	.st4{stroke:#FCD4A4;}
	.st5{stroke:#1A1618;}
	.st6{stroke:#F1EFEF;}
	.st7{stroke:#FFFFFF;}
</style>
<path class="st0" d="M4,0.5h4 M2,1.5h2 M8,1.5h2 M1,2.5h1 M10,2.5h1 M1,3.5h1 M10,3.5h1 M0,4.5h1 M11,4.5h1 M0,5.5h2 M10,5.5h2
	 M1,6.5h1 M10,6.5h1 M1,7.5h1 M10,7.5h1 M0,8.5h1 M10,8.5h1 M0,9.5h1 M10,9.5h1 M1,10.5h1 M10,10.5h1 M2,11.5h1 M9,11.5h1 M1,12.5h1
	 M3,12.5h6 M0,13.5h1 M8,13.5h2 M0,14.5h1 M2,14.5h1 M8,14.5h1 M10,14.5h1 M0,15.5h3 M8,15.5h3 M2,16.5h1 M8,16.5h1 M2,17.5h2
	 M6,17.5h2"/>
<path class="st1" d="M4,1.5h4 M2,2.5h8 M2,3.5h8 M2,4.5h1 M4,4.5h1 M6,4.5h1 M8,4.5h1 M10,4.5h1 M2,12.5h1 M1,13.5h2 M3,14.5h5
	 M3,16.5h5"/>
<path class="st2" d="M1,4.5h1 M3,4.5h1 M5,4.5h1 M7,4.5h1 M9,4.5h1"/>
<path class="st3" d="M2,5.5h8 M2,6.5h2 M2,7.5h2 M2,8.5h2 M1,9.5h3 M2,10.5h3 M3,11.5h3"/>
<path class="st4" d="M4,6.5h6 M4,7.5h6 M1,8.5h1 M5,8.5h4 M5,9.5h4 M5,10.5h5 M6,11.5h3 M9,14.5h1"/>
<path class="st5" d="M4,8.5h1 M9,8.5h1 M4,9.5h1 M9,9.5h1"/>
<path class="st6" d="M3,13.5h3 M3,15.5h1"/>
<path class="st7" d="M6,13.5h2 M1,14.5h1 M4,15.5h4"/>
</svg>
