<?xml version="1.0" encoding="utf-8"?>
<!-- Generator: Adobe Illustrator 27.7.0, SVG Export Plug-In . SVG Version: 6.00 Build 0)  -->
<svg version="1.1" id="Layer_1" shape-rendering="crispEdges"
	 xmlns="http://www.w3.org/2000/svg" xmlns:xlink="http://www.w3.org/1999/xlink" x="0px" y="0px" viewBox="0 0 12 18"
	 style="enable-background:new 0 0 12 18;" xml:space="preserve">
<style type="text/css">
	.st0{fill:#212121;}
	.st1{fill:#575757;}
	.st2{fill:#C2C2C2;}
	.st3{fill:#DBDBDB;}
	.st4{fill:#171717;}
	.st5{fill:#F0F0F0;}
	.st6{fill:#FFFFFF;}
</style>
<g>
	<path d="M4,0.5h4 M2,1.5h2 M8,1.5h2 M1,2.5h1 M10,2.5h1 M1,3.5h1 M10,3.5h1 M0,4.5h1 M11,4.5h1 M0,5.5h2 M10,5.5h2 M1,6.5h1
		 M10,6.5h1 M1,7.5h1 M10,7.5h1 M0,8.5h1 M10,8.5h1 M0,9.5h1 M10,9.5h1 M1,10.5h1 M10,10.5h1 M2,11.5h1 M9,11.5h1 M1,12.5h1 M3,12.5
		h6 M0,13.5h1 M8,13.5h2 M0,14.5h1 M2,14.5h1 M8,14.5h1 M10,14.5h1 M0,15.5h3 M8,15.5h3 M2,16.5h1 M8,16.5h1 M2,17.5h2 M6,17.5h2"/>
	<path d="M8,18H6v-1h2V18z M4,18H2v-2H0v-3h1v2h1v-1h1v3h1V18z M9,17H8v-4H3v-1H2v-1H1v-1h1v1h1v1h6v1h1v1h1v2H9V17z M9,15h1v-1H9
		V15z M2,13H1v-1h1V13z M10,12H9v-1h1V12z M11,11h-1v-1h1V11z M11,10h-1V5h1V4h-1V2H8V1H4V0h4v1h2v1h1v2h1v2h-1V10z M1,10H0V8h1V10z
		 M2,8H1V6H0V4h1v1h1V8z M2,4H1V2h1V4z M4,2H2V1h2V2z"/>
</g>
<g>
	<path d="M4,1.5h4 M2,2.5h8 M2,3.5h8 M2,4.5h1 M4,4.5h1 M6,4.5h1 M8,4.5h1 M10,4.5h1 M2,12.5h1 M1,13.5h2 M3,14.5h5 M3,16.5h5"/>
	<path class="st0" d="M8,17H3v-1h5V17z M8,15H3v-1H1v-1h1v-1h1v2h5V15z M11,5h-1V4H9v1H8V4H7v1H6V4H5v1H4V4H3v1H2V2h2V1h4v1h2v2h1V5
		z"/>
</g>
<g>
	<path d="M1,4.5h1 M3,4.5h1 M5,4.5h1 M7,4.5h1 M9,4.5h1"/>
	<path class="st1" d="M10,5H9V4h1V5z M8,5H7V4h1V5z M6,5H5V4h1V5z M4,5H3V4h1V5z M2,5H1V4h1V5z"/>
</g>
<g>
	<path d="M2,5.5h8 M2,6.5h2 M2,7.5h2 M2,8.5h2 M1,9.5h3 M2,10.5h3 M3,11.5h3"/>
	<path class="st2" d="M6,12H3v-1H2v-1h3v1h1V12z M4,10H1V9h1V5h8v1H4V10z"/>
</g>
<g>
	<path d="M4,6.5h6 M4,7.5h6 M1,8.5h1 M5,8.5h4 M5,9.5h4 M5,10.5h5 M6,11.5h3 M9,14.5h1"/>
	<path class="st3" d="M10,15H9v-1h1V15z M9,12H6v-1H5v-1h5v1H9V12z M9,10H5V8H4V6h6v2H9V10z M2,9H1V8h1V9z"/>
</g>
<g>
	<path d="M4,8.5h1 M9,8.5h1 M4,9.5h1 M9,9.5h1"/>
	<path class="st4" d="M10,10H9V8h1V10z M5,10H4V8h1V10z"/>
</g>
<g>
	<path d="M3,13.5h3 M3,15.5h1"/>
	<path class="st5" d="M4,16H3v-1h1V16z M6,14H3v-1h3V14z"/>
</g>
<g>
	<path d="M6,13.5h2 M1,14.5h1 M4,15.5h4"/>
	<path class="st6" d="M8,16H4v-1h4V16z M2,15H1v-1h1V15z M8,14H6v-1h2V14z"/>
</g>
</svg>
