<?xml version="1.0" encoding="UTF-8"?>
<svg width="9px" height="12px" viewBox="0 0 9 12" version="1.1" xmlns="http://www.w3.org/2000/svg" xmlns:xlink="http://www.w3.org/1999/xlink">
    <title>memory:shield copy 5</title>
    <g id="Page-1" stroke="none" stroke-width="1" fill="none" fill-rule="evenodd">
        <g id="3" transform="translate(-1062, -876)">
            <g id="memory:shield-copy-5" transform="translate(1060, 875)">
                <rect id="ViewBox" x="0" y="0" width="13" height="13"></rect>
                <path d="M2,2.8 L3.125,2.8 L3.125,2.2 L4.25,2.2 L4.25,1.6 L5.375,1.6 L5.375,1 L7.625,1 L7.625,1.6 L8.75,1.6 L8.75,2.2 L9.875,2.2 L9.875,2.8 L11,2.8 L11,8.8 L10.4375,8.8 L10.4375,10 L9.875,10 L9.875,11.2 L9.3125,11.2 L9.3125,11.8 L8.75,11.8 L8.75,12.4 L7.625,12.4 L7.625,13 L5.375,13 L5.375,12.4 L4.25,12.4 L4.25,11.8 L3.6875,11.8 L3.6875,11.2 L3.125,11.2 L3.125,10 L2.5625,10 L2.5625,8.8 L2,8.8 L2,2.8 M6.26177143,7.32960322 L6.30363496,7.35538447 L5.72355683,8.42709091 L5.76542037,8.45287216 L5.18534224,9.52457859 L5.22720577,9.55035984 L4.93716671,10.0862131 L5.23021144,10.2666818 L5.5202505,9.73082859 L5.60397757,9.78239109 L5.89401663,9.24653787 L5.9777437,9.29810037 L6.26778276,8.76224716 L6.30964629,8.78802841 L6.88972442,7.71632197 L6.93158795,7.74210322 L7.51166607,6.67039678 L7.46980254,6.64461553 L8.04988067,5.57290909 L8.00801713,5.54712784 L8.2980562,5.01127463 L8.21432913,4.95971213 L8.50436819,4.42385891 L8.42064113,4.37229641 L8.71068019,3.83644319 L8.41763546,3.65597444 L8.1275964,4.19182766 L8.08573287,4.16604641 L7.50565474,5.23775284 L7.46379121,5.21197159 L6.88371308,6.28367803 L6.84184955,6.25789678 L6.26177143,7.32960322 Z" id="Shape" fill="#000000" fill-rule="nonzero"></path>
            </g>
        </g>
    </g>
</svg>